# xmcd CD database file
#
# Track frame offsets:
#	150
#	16650
#	33825
#	49125
#	66300
#	84300
#	101025
#	115125
#	129825
#	142575
#	157725
#	169425
#	183675
#	198825
#
# Disc length: 2922 seconds
#
# Revision: 1
# Processed by: cddbd v1.5.2PL0 Copyright (c) Steve Scherf et al.
# Submitted via: CDex 1.70beta2
#
DISCID=ab0b680e
DTITLE=Tomas Linka - Prima linka
DYEAR=2004
DGENRE=Country
TTITLE0=Kdyz te zitra nepotkam
TTITLE1=To rano, co mu predchazel flam
TTITLE2=Tak goodbye, adieu
TTITLE3=Mladi svadi
TTITLE4=Bud nad veci
TTITLE5=Starej harmonikar
TTITLE6=Muj stin spliva s tvym
TTITLE7=Volny pad
TTITLE8=Divej se, divej
TTITLE9=Vidim, jak slunce vychazi
TTITLE10=Predstiram
TTITLE11=Drak
TTITLE12=Mrizi vlasu tvych
TTITLE13=Dialog
EXTD=YEAR: 2004
EXTT0=
EXTT1=
EXTT2=
EXTT3=
EXTT4=
EXTT5=
EXTT6=
EXTT7=
EXTT8=
EXTT9=
EXTT10=
EXTT11=
EXTT12=
EXTT13=
PLAYORDER=
